<?xml version="1.0" encoding="utf-8"?>
<!-- Generator: Adobe Illustrator 22.0.0, SVG Export Plug-In . SVG Version: 6.00 Build 0)  -->
<svg version="1.1" id="Layer_1" xmlns="http://www.w3.org/2000/svg" xmlns:xlink="http://www.w3.org/1999/xlink" x="0px" y="0px"
	 viewBox="0 0 410 452" style="enable-background:new 0 0 410 452;" xml:space="preserve">
<style type="text/css">
	.st0{fill:none;}
	.st1{fill:none;stroke:#231F20;stroke-width:1.44;}
	.st2{clip-path:url(#SVGID_2_);fill:#FFFFFF;}
	.st3{clip-path:url(#SVGID_2_);fill:#D7D8EA;stroke:#000000;stroke-width:4;stroke-miterlimit:10;}
	.st4{clip-path:url(#SVGID_2_);fill:#E5E5E5;stroke:#000000;stroke-width:4;stroke-miterlimit:10;}
	.st5{clip-path:url(#SVGID_2_);fill:#E5E5E5;stroke:#000000;stroke-width:4;stroke-linecap:round;stroke-linejoin:round;}
	.st6{clip-path:url(#SVGID_2_);fill:#FFFFFF;stroke:#000000;stroke-width:4;stroke-linecap:round;stroke-linejoin:round;}
	.st7{clip-path:url(#SVGID_2_);stroke:#000000;stroke-miterlimit:10;}
	.st8{clip-path:url(#SVGID_2_);stroke:#000000;stroke-width:4;stroke-linecap:round;stroke-linejoin:round;}
	.st9{clip-path:url(#SVGID_2_);fill:#4D4D4D;}
	.st10{clip-path:url(#SVGID_2_);fill:none;stroke:#000000;stroke-width:4;stroke-linecap:round;stroke-linejoin:round;}
	.st11{clip-path:url(#SVGID_2_);fill:url(#SVGID_3_);}
	.st12{clip-path:url(#SVGID_2_);fill:none;stroke:#808080;stroke-width:9;stroke-linecap:round;stroke-linejoin:round;}
	.st13{clip-path:url(#SVGID_2_);fill:url(#SVGID_4_);}
	.st14{fill:none;stroke:#000000;stroke-width:4;stroke-miterlimit:10;}
</style>
<pattern  y="452" width="72" height="72" patternUnits="userSpaceOnUse" id="_10_lpi_20_" viewBox="0 -144.2 72 72" style="overflow:visible;">
	<g>
		<rect y="-144.2" class="st0" width="72" height="72"/>
		<rect y="-144.2" class="st0" width="72" height="72"/>
		<line class="st1" x1="68.4" y1="-216.5" x2="68.4" y2="-144"/>
		<line class="st1" x1="54" y1="-216.5" x2="54" y2="-144"/>
		<line class="st1" x1="39.6" y1="-216.5" x2="39.6" y2="-144"/>
		<line class="st1" x1="25.2" y1="-216.5" x2="25.2" y2="-144"/>
		<line class="st1" x1="10.8" y1="-216.5" x2="10.8" y2="-144"/>
		<line class="st1" x1="61.2" y1="-216.5" x2="61.2" y2="-144"/>
		<line class="st1" x1="46.8" y1="-216.5" x2="46.8" y2="-144"/>
		<line class="st1" x1="32.4" y1="-216.5" x2="32.4" y2="-144"/>
		<line class="st1" x1="18" y1="-216.5" x2="18" y2="-144"/>
		<line class="st1" x1="3.6" y1="-216.5" x2="3.6" y2="-144"/>
		<line class="st1" x1="68.4" y1="-144.5" x2="68.4" y2="-72"/>
		<line class="st1" x1="54" y1="-144.5" x2="54" y2="-72"/>
		<line class="st1" x1="39.6" y1="-144.5" x2="39.6" y2="-72"/>
		<line class="st1" x1="25.2" y1="-144.5" x2="25.2" y2="-72"/>
		<line class="st1" x1="10.8" y1="-144.5" x2="10.8" y2="-72"/>
		<line class="st1" x1="61.2" y1="-144.5" x2="61.2" y2="-72"/>
		<line class="st1" x1="46.8" y1="-144.5" x2="46.8" y2="-72"/>
		<line class="st1" x1="32.4" y1="-144.5" x2="32.4" y2="-72"/>
		<line class="st1" x1="18" y1="-144.5" x2="18" y2="-72"/>
		<line class="st1" x1="3.6" y1="-144.5" x2="3.6" y2="-72"/>
		<line class="st1" x1="68.4" y1="-72.5" x2="68.4" y2="0"/>
		<line class="st1" x1="54" y1="-72.5" x2="54" y2="0"/>
		<line class="st1" x1="39.6" y1="-72.5" x2="39.6" y2="0"/>
		<line class="st1" x1="25.2" y1="-72.5" x2="25.2" y2="0"/>
		<line class="st1" x1="10.8" y1="-72.5" x2="10.8" y2="0"/>
		<line class="st1" x1="61.2" y1="-72.5" x2="61.2" y2="0"/>
		<line class="st1" x1="46.8" y1="-72.5" x2="46.8" y2="0"/>
		<line class="st1" x1="32.4" y1="-72.5" x2="32.4" y2="0"/>
		<line class="st1" x1="18" y1="-72.5" x2="18" y2="0"/>
		<line class="st1" x1="3.6" y1="-72.5" x2="3.6" y2="0"/>
	</g>
</pattern>
<title>ben</title>
<g>
	<g>
		<defs>
			<circle id="SVGID_1_" cx="206" cy="205" r="203"/>
		</defs>
		<clipPath id="SVGID_2_">
			<use xlink:href="#SVGID_1_"  style="overflow:visible;"/>
		</clipPath>
		<circle class="st2" cx="205" cy="205" r="203"/>
		<path class="st3" d="M133,310h148c27.6,0,50,22.4,50,50c0,0,24.1,72.5-3.5,72.5L103,426c-27.6,0-20-66-20-66
			C83,332.4,105.4,310,133,310z"/>
		<path class="st4" d="M207.6,246.5L207.6,246.5c16.9,0,30.6,13.7,30.6,30.6v51.8c0,16.9-13.7,30.6-30.6,30.6h0
			c-16.9,0-30.6-13.7-30.6-30.6v-51.8C177,260.2,190.7,246.5,207.6,246.5z"/>
		<path class="st5" d="M146.8,243.9c-13.4,4.4-28.6-5.1-34-21.4s1-33,14.4-37.5c3.3-1.1,6.8-1.4,10.2-0.8"/>
		<path class="st5" d="M264.9,243.9c13.4,4.4,28.6-5.1,34-21.4s-1-33-14.4-37.5c-3.3-1.1-6.8-1.4-10.2-0.8"/>
		<ellipse class="st5" cx="206" cy="155.5" rx="77.5" ry="74"/>
		<path class="st5" d="M274.5,168.5l4,44l-7,20l-3,30c0,0-22,45-61,50h-2c-39-5-61-50-61-50l-3-30l-7-20l4-44"/>
		<circle class="st6" cx="171.5" cy="181.5" r="19"/>
		<circle class="st7" cx="171.5" cy="180.5" r="8"/>
		<path class="st5" d="M151,186.2c-0.4-1.6-0.5-3.2-0.5-4.8c0-11.6,9.4-21,21-21c8.4,0,16.1,5.1,19.4,12.8
			c-6.9,0.2-13.7,1.3-20.4,3.2C163.5,178.7,156.9,181.9,151,186.2z"/>
		<path class="st8" d="M157.5,156.5l-16,15c0,0,26-7,47-5l-5-13L157.5,156.5z"/>
		<circle class="st6" cx="242.5" cy="181.5" r="19"/>
		<circle class="st7" cx="242.5" cy="180.5" r="8"/>
		<path class="st5" d="M263,186.2c0.4-1.6,0.5-3.2,0.5-4.8c0-11.6-9.4-21-21-21c-8.4,0-16.1,5.1-19.4,12.8
			c6.9,0.2,13.7,1.3,20.4,3.2C250.5,178.7,257.1,181.9,263,186.2z"/>
		<path class="st8" d="M254.5,156.5l16,15c0,0-26-7-47-5l5-13L254.5,156.5z"/>
		<path class="st9" d="M161,103c0,0-14.9-1-23,26c-6,20-1,58-1,58l-6-4c0,0-7-31,0.5-54.5c0,0-23-16-12-31c0,0,14-10,16-14
			s-5-16,5-24s104-31,118,20l1,11c0,0,35.5,22.5,21.5,93.5l-4,1c0,0,1-84-26.5-85.5C236.8,98.8,198,115,198,115s-27-7-32-18L161,103
			z"/>
		<path class="st10" d="M262.5,93.5c0,0,33,25,21,83"/>
		<pattern  id="SVGID_3_" xlink:href="#_10_lpi_20_" patternTransform="matrix(1 0 0 -1 -46 -16873.5)">
		</pattern>
		<path class="st11" d="M207.3,238c36,0,35,29,35,29c6-25,28.7-28,28.7-28l-2.7,23c0,0-22,46-61,50H206c-39-4-61-50-61-50l-2.7-23
			c0,0,22.7,3,28.7,28c0,0-1-29,35-29"/>
		<path class="st10" d="M229.5,258.5c0,0-14-4-22-3h-2c-8-1-22,3-22,3"/>
		<polyline class="st12" points="190.5,228 205.5,235.5 205.5,175.5 		"/>
		<line class="st12" x1="205.5" y1="235.5" x2="220.5" y2="228"/>
		<pattern  id="SVGID_4_" xlink:href="#_10_lpi_20_" patternTransform="matrix(1 0 0 -1 -46 -16873.5)">
		</pattern>
		<path class="st13" d="M237.3,300.7c-28.7,23.7-60,0.7-60,0.7L177,316c36,38,63-4.3,63-4.3L237.3,300.7z"/>
		<path class="st10" d="M130.5,183.5c-8-29,1-56,1-56s-18-11-14-27c0,0,1-7,16-15c2.6-2.2,3.7-5.7,3-9c-1-6-2-16,10-20"/>
		<path class="st10" d="M138,67.7c7.3-4.5,30.1-2.2,26,18s34.2,29.3,34.2,29.3s48.8-19.1,61.3-14.6"/>
		<path class="st10" d="M159.5,103.5c0,0-1-20-13-16s-26,3-23-5"/>
		<path class="st10" d="M146.5,54.5c0,0,104-31,105,23"/>
	</g>
	<circle class="st14" cx="205" cy="205" r="203"/>
</g>
</svg>
