<?xml version="1.0" encoding="utf-8"?>
<!-- Generator: Adobe Illustrator 22.0.0, SVG Export Plug-In . SVG Version: 6.00 Build 0)  -->
<svg version="1.1" id="Layer_1" xmlns="http://www.w3.org/2000/svg" xmlns:xlink="http://www.w3.org/1999/xlink" x="0px" y="0px"
	 viewBox="0 0 410 452" style="enable-background:new 0 0 410 452;" xml:space="preserve">
<style type="text/css">
	.st0{clip-path:url(#SVGID_2_);}
	.st1{fill:#FFFFFF;}
	.st2{fill:#D7D8EA;stroke:#000000;stroke-width:4;stroke-miterlimit:10;}
	.st3{fill:#E5E5E5;stroke:#000000;stroke-width:4;stroke-miterlimit:10;}
	.st4{fill:#E5E5E5;stroke:#000000;stroke-width:4;stroke-linecap:round;stroke-linejoin:round;}
	.st5{fill:#FFFFFF;stroke:#000000;stroke-width:4;stroke-linecap:round;stroke-linejoin:round;}
	.st6{stroke:#000000;stroke-width:4;stroke-linecap:round;stroke-linejoin:round;}
	.st7{fill:none;stroke:#666666;stroke-width:4;stroke-linecap:round;stroke-linejoin:round;}
	.st8{fill:none;stroke:#000000;stroke-width:4;stroke-linecap:round;stroke-linejoin:round;}
	.st9{fill:#666666;}
	.st10{fill:none;stroke:#000000;stroke-width:4;stroke-miterlimit:10;}
</style>
<title>joan</title>
<g>
	<defs>
		<circle id="SVGID_1_" cx="205" cy="205" r="203"/>
	</defs>
	<clipPath id="SVGID_2_">
		<use xlink:href="#SVGID_1_"  style="overflow:visible;"/>
	</clipPath>
	<g class="st0">
		<circle class="st1" cx="205" cy="205" r="203"/>
		<path class="st2" d="M141,333h148c27.6,0,50,22.4,50,50v69c0,27.6-22.4,50-50,50H141c-27.6,0-50-22.4-50-50v-69
			C91,355.4,113.4,333,141,333z"/>
		<path class="st3" d="M210.8,286.9L210.8,286.9c13.5,0,24.4,10.9,24.4,24.4v41.3c0,13.5-10.9,24.4-24.4,24.4h0
			c-13.5,0-24.4-10.9-24.4-24.4v-41.3C186.4,297.8,197.3,286.9,210.8,286.9z"/>
		<path class="st4" d="M144.3,198.3c-0.1-1.2-13.3-16.5-25.8,2.1s8,48.3,18.7,44.9s13.4-6.6,13.4-6.6"/>
		<path class="st4" d="M276.1,198.3c0.1-1.2,13.3-16.5,25.8,2.1s-8,48.3-18.7,44.9s-13.4-6.6-13.4-6.6"/>
		<ellipse class="st4" cx="210.5" cy="159.3" rx="81" ry="81.3"/>
		<path class="st4" d="M284.6,177.5c0,0-6.3,132.6-70.1,150.1H207c-63.8-17.5-70-150.1-70-150.1"/>
		<circle class="st5" cx="179.2" cy="210.4" r="16.5"/>
		<circle class="st6" cx="179.2" cy="209.5" r="7"/>
		<path class="st7" d="M232.4,268.2c1.4,0.6,1.9,2.3,1.3,3.7c0,0,0,0.1,0,0.1c0,0-7.5-1.2-23.8,6.3h-0.9
			c-16.3-7.5-23.8-6.3-23.8-6.3c-0.7-1.3-0.2-3,1.2-3.7c0,0,0.1,0,0.1,0"/>
		<path class="st8" d="M157.6,186.9c0,0,5-8.8,8.8-11.3"/>
		<circle class="st5" cx="241.7" cy="210.4" r="16.5"/>
		<circle class="st6" cx="241.7" cy="209.5" r="7"/>
		<path class="st8" d="M263.3,186.9c0,0-5-8.8-8.8-11.3"/>
		<polyline class="st8" points="193.9,249.4 208.9,261.9 225.2,249.4 		"/>
		<circle class="st8" cx="181.4" cy="221.9" r="16.3"/>
		
			<ellipse transform="matrix(0.1602 -0.9871 0.9871 0.1602 -17.309 423.4357)" class="st8" cx="240.2" cy="221.9" rx="16.3" ry="16.3"/>
		<path class="st9" d="M188.9,124.3c0,0-18.8,3.8-27.5-1.2s-65-13.8,11.3-86.3c0,0,46.3,11.3,65.1,36.3S188.9,124.3,188.9,124.3z"/>
		<path class="st8" d="M134.6,75.8c5,4.2,1.1,8.8,6.1,13.1s8.9-0.3,13.9,3.9s1.1,8.8,6.1,13.1s8.9-0.3,13.9,3.9s1.1,8.8,6.1,13.1"/>
		<path class="st8" d="M156.8,46.2c0.9,4.9-3.6,11.2-2,15.7c1.7,4.7,9.2,6.7,11.5,10.8c2.5,4.5,0.1,11.8,2.8,15.6
			c3.2,4.4,11,4.4,13.9,7.5c6,6.5,0.7,9.9,6.4,14.5"/>
		<path class="st8" d="M173.7,31.1c2.9,3.6,0.8,11,3.2,15.1s9.9,5.5,11.9,9.9s-1.8,11.1-0.2,15.5c1.7,4.7,8.9,7.4,10.1,11.7
			c1.5,5.1-3.1,11.3-2.2,15.3c2,8.4,7.6,5.8,8.7,12.8"/>
		<path class="st8" d="M134.2,103.8c6.6,0.8,2.8,6,9.6,11.1c2.9,2.2,10.2,0.9,13.6,4.9"/>
		<path class="st8" d="M210.9,91.7c0.2-6.3,6.2-5.3,6.1-12.6c-0.1-3.8-6.2-8-6.5-12.4s5.3-9.3,4.7-13.2c-0.8-4.9-7.5-7.4-8.9-10.4"
			/>
		<path class="st8" d="M222.5,99.2c0.6-1.2,8.2-2.2,10.5-9.3c1-3.2-3.7-8.8-2.7-13.7c0.7-3.6,7.3-6.8,7.9-11.5
			c0.5-3.8-5.1-8.6-4.8-13.1"/>
		<path class="st8" d="M198.1,223.4c3-7,11-10.3,18-7.3c3.1,1.3,5.6,3.7,7,6.6"/>
		<path class="st8" d="M165.1,221.9c-2.5-5-27.5-27.5-27.5-27.5"/>
		<path class="st8" d="M256.5,221.9c2.5-5,27.5-27.5,27.5-27.5"/>
	</g>
</g>
<circle class="st10" cx="205" cy="205" r="203"/>
</svg>
